<svg width="120" height="20" viewBox="0 0 120 20" fill="none" xmlns="http://www.w3.org/2000/svg">
<path d="M18.6947 8.59371L14.8016 12.3887L15.721 17.7487C15.761 17.9831 15.6647 18.22 15.4722 18.36C15.3635 18.4393 15.2341 18.4793 15.1047 18.4793C15.0053 18.4793 14.9053 18.4556 14.8141 18.4075L10.0003 15.8768L5.18722 18.4068C4.97722 18.5181 4.72159 18.5 4.52909 18.3593C4.33659 18.2193 4.24034 17.9825 4.28034 17.7481L5.19972 12.3881L1.30597 8.59371C1.13597 8.42746 1.07409 8.17871 1.14784 7.95309C1.22159 7.72746 1.41722 7.56184 1.65284 7.52746L7.03347 6.74621L9.43972 1.86996C9.65034 1.44309 10.3503 1.44309 10.561 1.86996L12.9672 6.74621L18.3478 7.52746C18.5835 7.56184 18.7791 7.72684 18.8528 7.95309C18.9266 8.17934 18.8647 8.42684 18.6947 8.59371Z" fill="url(#paint0_linear_301_6943)"/>
<path d="M43.6947 8.59371L39.8016 12.3887L40.721 17.7487C40.761 17.9831 40.6647 18.22 40.4722 18.36C40.3635 18.4393 40.2341 18.4793 40.1047 18.4793C40.0053 18.4793 39.9053 18.4556 39.8141 18.4075L35.0003 15.8768L30.1872 18.4068C29.9772 18.5181 29.7216 18.5 29.5291 18.3593C29.3366 18.2193 29.2403 17.9825 29.2803 17.7481L30.1997 12.3881L26.306 8.59371C26.136 8.42746 26.0741 8.17871 26.1478 7.95309C26.2216 7.72746 26.4172 7.56184 26.6528 7.52746L32.0335 6.74621L34.4397 1.86996C34.6503 1.44309 35.3503 1.44309 35.561 1.86996L37.9672 6.74621L43.3478 7.52746C43.5835 7.56184 43.7791 7.72684 43.8528 7.95309C43.9266 8.17934 43.8647 8.42684 43.6947 8.59371Z" fill="url(#paint1_linear_301_6943)"/>
<path d="M68.6947 8.59371L64.8016 12.3887L65.721 17.7487C65.761 17.9831 65.6647 18.22 65.4722 18.36C65.3635 18.4393 65.2341 18.4793 65.1047 18.4793C65.0053 18.4793 64.9053 18.4556 64.8141 18.4075L60.0003 15.8768L55.1872 18.4068C54.9772 18.5181 54.7216 18.5 54.5291 18.3593C54.3366 18.2193 54.2403 17.9825 54.2803 17.7481L55.1997 12.3881L51.306 8.59371C51.136 8.42746 51.0741 8.17871 51.1478 7.95309C51.2216 7.72746 51.4172 7.56184 51.6528 7.52746L57.0335 6.74621L59.4397 1.86996C59.6503 1.44309 60.3503 1.44309 60.561 1.86996L62.9672 6.74621L68.3478 7.52746C68.5835 7.56184 68.7791 7.72684 68.8528 7.95309C68.9266 8.17934 68.8647 8.42684 68.6947 8.59371Z" fill="url(#paint2_linear_301_6943)"/>
<path d="M93.6947 8.59371L89.8016 12.3887L90.721 17.7487C90.761 17.9831 90.6647 18.22 90.4722 18.36C90.3635 18.4393 90.2341 18.4793 90.1047 18.4793C90.0053 18.4793 89.9053 18.4556 89.8141 18.4075L85.0003 15.8768L80.1872 18.4068C79.9772 18.5181 79.7216 18.5 79.5291 18.3593C79.3366 18.2193 79.2403 17.9825 79.2803 17.7481L80.1997 12.3881L76.306 8.59371C76.136 8.42746 76.0741 8.17871 76.1478 7.95309C76.2216 7.72746 76.4172 7.56184 76.6528 7.52746L82.0335 6.74621L84.4397 1.86996C84.6503 1.44309 85.3503 1.44309 85.561 1.86996L87.9672 6.74621L93.3478 7.52746C93.5835 7.56184 93.7791 7.72684 93.8528 7.95309C93.9266 8.17934 93.8647 8.42684 93.6947 8.59371Z" fill="url(#paint3_linear_301_6943)"/>
<path d="M118.695 8.59371L114.802 12.3887L115.721 17.7487C115.761 17.9831 115.665 18.22 115.472 18.36C115.363 18.4393 115.234 18.4793 115.105 18.4793C115.005 18.4793 114.905 18.4556 114.814 18.4075L110 15.8768L105.187 18.4068C104.977 18.5181 104.722 18.5 104.529 18.3593C104.337 18.2193 104.24 17.9825 104.28 17.7481L105.2 12.3881L101.306 8.59371C101.136 8.42746 101.074 8.17871 101.148 7.95309C101.222 7.72746 101.417 7.56184 101.653 7.52746L107.033 6.74621L109.44 1.86996C109.65 1.44309 110.35 1.44309 110.561 1.86996L112.967 6.74621L118.348 7.52746C118.583 7.56184 118.779 7.72684 118.853 7.95309C118.927 8.17934 118.865 8.42684 118.695 8.59371Z" fill="url(#paint4_linear_301_6943)"/>
<defs>
<linearGradient id="paint0_linear_301_6943" x1="10.0003" y1="1.5498" x2="10.0003" y2="18.4793" gradientUnits="userSpaceOnUse">
<stop stop-color="#3BB96D"/>
<stop offset="1" stop-color="#279A59"/>
</linearGradient>
<linearGradient id="paint1_linear_301_6943" x1="35.0003" y1="1.5498" x2="35.0003" y2="18.4793" gradientUnits="userSpaceOnUse">
<stop stop-color="#3BB96D"/>
<stop offset="1" stop-color="#279A59"/>
</linearGradient>
<linearGradient id="paint2_linear_301_6943" x1="60.0003" y1="1.5498" x2="60.0003" y2="18.4793" gradientUnits="userSpaceOnUse">
<stop stop-color="#3BB96D"/>
<stop offset="1" stop-color="#279A59"/>
</linearGradient>
<linearGradient id="paint3_linear_301_6943" x1="85.0003" y1="1.5498" x2="85.0003" y2="18.4793" gradientUnits="userSpaceOnUse">
<stop stop-color="#3BB96D"/>
<stop offset="1" stop-color="#279A59"/>
</linearGradient>
<linearGradient id="paint4_linear_301_6943" x1="110" y1="1.5498" x2="110" y2="18.4793" gradientUnits="userSpaceOnUse">
<stop stop-color="#3BB96D"/>
<stop offset="1" stop-color="#279A59"/>
</linearGradient>
</defs>
</svg>
